<mxfile host="65bd71144e">
    <diagram id="UWPo_v-10n4tL6fzH6Lb" name="001. Introduction">
        <mxGraphModel dx="846" dy="654" grid="0" gridSize="10" guides="1" tooltips="1" connect="1" arrows="1" fold="1" page="1" pageScale="1" pageWidth="827" pageHeight="1169" math="0" shadow="0">
            <root>
                <mxCell id="0"/>
                <mxCell id="1" parent="0"/>
                <mxCell id="2" value="Ramesh" style="shape=umlActor;verticalLabelPosition=bottom;verticalAlign=top;html=1;" parent="1" vertex="1">
                    <mxGeometry x="216" y="499" width="30" height="60" as="geometry"/>
                </mxCell>
                <mxCell id="3" value="How to use or declare variables in JavaScript?" style="ellipse;shape=cloud;whiteSpace=wrap;html=1;spacingTop=0;spacingLeft=30;spacingRight=24;" parent="1" vertex="1">
                    <mxGeometry x="219" y="404" width="157" height="105" as="geometry"/>
                </mxCell>
                <mxCell id="4" value="Suresh" style="shape=umlActor;verticalLabelPosition=bottom;verticalAlign=top;html=1;outlineConnect=0;" parent="1" vertex="1">
                    <mxGeometry x="531" y="503" width="30" height="60" as="geometry"/>
                </mxCell>
                <mxCell id="5" value="Using &lt;b&gt;var&lt;/b&gt; keyword. Let me show you how" style="ellipse;shape=cloud;whiteSpace=wrap;html=1;spacingLeft=30;spacingRight=24;" parent="1" vertex="1">
                    <mxGeometry x="404" y="414" width="157" height="95" as="geometry"/>
                </mxCell>
                <mxCell id="7" value="Variables in JavaScript" style="text;html=1;align=center;verticalAlign=middle;whiteSpace=wrap;rounded=0;fontSize=24;fillColor=#f5f5f5;strokeColor=#666666;fontColor=#333333;" parent="1" vertex="1">
                    <mxGeometry x="170" y="165" width="400" height="40" as="geometry"/>
                </mxCell>
                <mxCell id="8" value="&lt;h1 style=&quot;font-size: 16px&quot;&gt;What are variables?&lt;/h1&gt;&lt;p style=&quot;font-size: 16px&quot;&gt;- Variables are reference to the data, which are stored in the memory.&amp;nbsp;&lt;/p&gt;&lt;p style=&quot;font-size: 16px&quot;&gt;- We can be programmatically access data from variable and store as well.&lt;/p&gt;" style="text;html=1;strokeColor=none;fillColor=none;spacing=5;spacingTop=-20;whiteSpace=wrap;overflow=hidden;rounded=0;fontSize=16;align=left;" parent="1" vertex="1">
                    <mxGeometry x="142" y="267" width="543" height="101" as="geometry"/>
                </mxCell>
            </root>
        </mxGraphModel>
    </diagram>
    <diagram id="O_Hu3-G7g6oeAu2sqWzj" name="002. Naming Conventions">
        <mxGraphModel dx="842" dy="830" grid="0" gridSize="10" guides="1" tooltips="1" connect="1" arrows="1" fold="1" page="1" pageScale="1" pageWidth="827" pageHeight="1169" math="0" shadow="0">
            <root>
                <mxCell id="JCTUsxEN9AX0IF-qOmYy-0"/>
                <mxCell id="JCTUsxEN9AX0IF-qOmYy-1" parent="JCTUsxEN9AX0IF-qOmYy-0"/>
                <mxCell id="92WTuEdpDcbOyRHJ7sdj-1" value="Naming conventions for naming variables in JavaScript" style="text;html=1;strokeColor=#666666;align=center;verticalAlign=middle;whiteSpace=wrap;rounded=0;fontSize=16;fillColor=#f5f5f5;fontColor=#333333;" parent="JCTUsxEN9AX0IF-qOmYy-1" vertex="1">
                    <mxGeometry x="40" y="240" width="522" height="40" as="geometry"/>
                </mxCell>
                <mxCell id="92WTuEdpDcbOyRHJ7sdj-2" value="Variable can contain Alphabets (a-z and A-Z), Numbers (0-9), underscores(_) and dollar symbols($)" style="text;html=1;strokeColor=#82b366;fillColor=#d5e8d4;align=left;verticalAlign=middle;whiteSpace=wrap;rounded=0;fontSize=16;spacingLeft=8;" parent="JCTUsxEN9AX0IF-qOmYy-1" vertex="1">
                    <mxGeometry x="40" y="320" width="760" height="40" as="geometry"/>
                </mxCell>
                <mxCell id="92WTuEdpDcbOyRHJ7sdj-3" value="Variable can contain not contain spaces and tabs in them" style="text;html=1;strokeColor=#b85450;fillColor=#f8cecc;align=left;verticalAlign=middle;whiteSpace=wrap;rounded=0;fontSize=16;spacingLeft=8;" parent="JCTUsxEN9AX0IF-qOmYy-1" vertex="1">
                    <mxGeometry x="40" y="400" width="760" height="40" as="geometry"/>
                </mxCell>
                <mxCell id="92WTuEdpDcbOyRHJ7sdj-4" value="Variable name should not start with a number&amp;nbsp;" style="text;html=1;strokeColor=#b85450;fillColor=#f8cecc;align=left;verticalAlign=middle;whiteSpace=wrap;rounded=0;fontSize=16;spacingLeft=8;" parent="JCTUsxEN9AX0IF-qOmYy-1" vertex="1">
                    <mxGeometry x="40" y="480" width="760" height="40" as="geometry"/>
                </mxCell>
                <mxCell id="92WTuEdpDcbOyRHJ7sdj-6" value="Variable name should not be a keyword" style="text;html=1;strokeColor=#b85450;fillColor=#f8cecc;align=left;verticalAlign=middle;whiteSpace=wrap;rounded=0;fontSize=16;spacingLeft=8;" parent="JCTUsxEN9AX0IF-qOmYy-1" vertex="1">
                    <mxGeometry x="40" y="640" width="760" height="40" as="geometry"/>
                </mxCell>
                <mxCell id="92WTuEdpDcbOyRHJ7sdj-7" value="Variable name are case sensitive" style="text;html=1;strokeColor=#82b366;fillColor=#d5e8d4;align=left;verticalAlign=middle;whiteSpace=wrap;rounded=0;fontSize=16;spacingLeft=8;" parent="JCTUsxEN9AX0IF-qOmYy-1" vertex="1">
                    <mxGeometry x="40" y="560" width="760" height="40" as="geometry"/>
                </mxCell>
            </root>
        </mxGraphModel>
    </diagram>
    <diagram id="nEnDKbnJWytW2vCfDBVQ" name="003. Datatypes">
        <mxGraphModel dx="846" dy="654" grid="0" gridSize="10" guides="1" tooltips="1" connect="1" arrows="1" fold="1" page="1" pageScale="1" pageWidth="827" pageHeight="1169" math="0" shadow="0">
            <root>
                <mxCell id="kad9bLXhxutbQK4ElcKg-0"/>
                <mxCell id="kad9bLXhxutbQK4ElcKg-1" parent="kad9bLXhxutbQK4ElcKg-0"/>
                <mxCell id="kad9bLXhxutbQK4ElcKg-2" value="Data types" style="text;html=1;strokeColor=#666666;fillColor=#f5f5f5;align=center;verticalAlign=middle;whiteSpace=wrap;rounded=0;fontSize=16;fontColor=#333333;" parent="kad9bLXhxutbQK4ElcKg-1" vertex="1">
                    <mxGeometry x="40" width="240" height="40" as="geometry"/>
                </mxCell>
                <mxCell id="kad9bLXhxutbQK4ElcKg-3" value="&lt;h1&gt;&lt;font style=&quot;font-size: 21px ; line-height: 120%&quot;&gt;What are datatypes?&lt;/font&gt;&lt;/h1&gt;&lt;p&gt;Type of data, which a variable is storing is called as datatype&lt;/p&gt;" style="text;html=1;strokeColor=none;fillColor=none;spacing=5;spacingTop=-20;whiteSpace=wrap;overflow=hidden;rounded=0;fontSize=16;align=left;" parent="kad9bLXhxutbQK4ElcKg-1" vertex="1">
                    <mxGeometry x="40" y="60" width="520" height="100" as="geometry"/>
                </mxCell>
                <mxCell id="kad9bLXhxutbQK4ElcKg-9" style="edgeStyle=orthogonalEdgeStyle;rounded=0;orthogonalLoop=1;jettySize=auto;html=1;exitX=0;exitY=0.5;exitDx=0;exitDy=0;entryX=0.5;entryY=0;entryDx=0;entryDy=0;fontSize=16;" parent="kad9bLXhxutbQK4ElcKg-1" source="kad9bLXhxutbQK4ElcKg-6" target="kad9bLXhxutbQK4ElcKg-7" edge="1">
                    <mxGeometry relative="1" as="geometry"/>
                </mxCell>
                <mxCell id="kad9bLXhxutbQK4ElcKg-10" style="edgeStyle=orthogonalEdgeStyle;rounded=0;orthogonalLoop=1;jettySize=auto;html=1;exitX=1;exitY=0.5;exitDx=0;exitDy=0;entryX=0.5;entryY=0;entryDx=0;entryDy=0;fontSize=16;" parent="kad9bLXhxutbQK4ElcKg-1" source="kad9bLXhxutbQK4ElcKg-6" target="kad9bLXhxutbQK4ElcKg-8" edge="1">
                    <mxGeometry relative="1" as="geometry"/>
                </mxCell>
                <mxCell id="kad9bLXhxutbQK4ElcKg-6" value="Types of Datatypes" style="rounded=0;whiteSpace=wrap;html=1;fontSize=16;align=center;fillColor=#dae8fc;strokeColor=#6c8ebf;" parent="kad9bLXhxutbQK4ElcKg-1" vertex="1">
                    <mxGeometry x="280" y="200" width="200" height="40" as="geometry"/>
                </mxCell>
                <mxCell id="kad9bLXhxutbQK4ElcKg-11" style="edgeStyle=orthogonalEdgeStyle;rounded=0;orthogonalLoop=1;jettySize=auto;html=1;exitX=0.25;exitY=1;exitDx=0;exitDy=0;fontSize=16;endArrow=none;endFill=0;" parent="kad9bLXhxutbQK4ElcKg-1" source="kad9bLXhxutbQK4ElcKg-7" edge="1">
                    <mxGeometry relative="1" as="geometry">
                        <mxPoint x="170" y="600" as="targetPoint"/>
                    </mxGeometry>
                </mxCell>
                <mxCell id="kad9bLXhxutbQK4ElcKg-7" value="Primitive types" style="rounded=0;whiteSpace=wrap;html=1;fontSize=16;align=center;fillColor=#dae8fc;strokeColor=#6c8ebf;" parent="kad9bLXhxutbQK4ElcKg-1" vertex="1">
                    <mxGeometry x="120" y="280" width="200" height="40" as="geometry"/>
                </mxCell>
                <mxCell id="kad9bLXhxutbQK4ElcKg-29" style="edgeStyle=orthogonalEdgeStyle;rounded=0;orthogonalLoop=1;jettySize=auto;html=1;exitX=0.25;exitY=1;exitDx=0;exitDy=0;fontSize=16;endArrow=none;endFill=0;" parent="kad9bLXhxutbQK4ElcKg-1" source="kad9bLXhxutbQK4ElcKg-8" edge="1">
                    <mxGeometry relative="1" as="geometry">
                        <mxPoint x="490" y="400" as="targetPoint"/>
                    </mxGeometry>
                </mxCell>
                <mxCell id="kad9bLXhxutbQK4ElcKg-8" value="Derived types" style="rounded=0;whiteSpace=wrap;html=1;fontSize=16;align=center;fillColor=#dae8fc;strokeColor=#6c8ebf;" parent="kad9bLXhxutbQK4ElcKg-1" vertex="1">
                    <mxGeometry x="440" y="280" width="200" height="40" as="geometry"/>
                </mxCell>
                <mxCell id="kad9bLXhxutbQK4ElcKg-12" value="" style="endArrow=classic;html=1;fontSize=16;" parent="kad9bLXhxutbQK4ElcKg-1" edge="1">
                    <mxGeometry width="50" height="50" relative="1" as="geometry">
                        <mxPoint x="170" y="360" as="sourcePoint"/>
                        <mxPoint x="200" y="360" as="targetPoint"/>
                    </mxGeometry>
                </mxCell>
                <mxCell id="kad9bLXhxutbQK4ElcKg-14" value="" style="endArrow=classic;html=1;fontSize=16;" parent="kad9bLXhxutbQK4ElcKg-1" edge="1">
                    <mxGeometry width="50" height="50" relative="1" as="geometry">
                        <mxPoint x="171" y="399" as="sourcePoint"/>
                        <mxPoint x="201" y="399" as="targetPoint"/>
                    </mxGeometry>
                </mxCell>
                <mxCell id="kad9bLXhxutbQK4ElcKg-15" value="" style="endArrow=classic;html=1;fontSize=16;" parent="kad9bLXhxutbQK4ElcKg-1" edge="1">
                    <mxGeometry width="50" height="50" relative="1" as="geometry">
                        <mxPoint x="170" y="440" as="sourcePoint"/>
                        <mxPoint x="200" y="440" as="targetPoint"/>
                    </mxGeometry>
                </mxCell>
                <mxCell id="kad9bLXhxutbQK4ElcKg-16" value="" style="endArrow=classic;html=1;fontSize=16;" parent="kad9bLXhxutbQK4ElcKg-1" edge="1">
                    <mxGeometry width="50" height="50" relative="1" as="geometry">
                        <mxPoint x="170" y="480" as="sourcePoint"/>
                        <mxPoint x="200" y="480" as="targetPoint"/>
                    </mxGeometry>
                </mxCell>
                <mxCell id="kad9bLXhxutbQK4ElcKg-17" value="" style="endArrow=classic;html=1;fontSize=16;" parent="kad9bLXhxutbQK4ElcKg-1" edge="1">
                    <mxGeometry width="50" height="50" relative="1" as="geometry">
                        <mxPoint x="170" y="520" as="sourcePoint"/>
                        <mxPoint x="200" y="520" as="targetPoint"/>
                    </mxGeometry>
                </mxCell>
                <mxCell id="kad9bLXhxutbQK4ElcKg-18" value="" style="endArrow=classic;html=1;fontSize=16;" parent="kad9bLXhxutbQK4ElcKg-1" edge="1">
                    <mxGeometry width="50" height="50" relative="1" as="geometry">
                        <mxPoint x="170" y="560" as="sourcePoint"/>
                        <mxPoint x="200" y="560" as="targetPoint"/>
                    </mxGeometry>
                </mxCell>
                <mxCell id="kad9bLXhxutbQK4ElcKg-19" value="boolean" style="text;html=1;strokeColor=#82b366;fillColor=#d5e8d4;align=left;verticalAlign=middle;whiteSpace=wrap;rounded=0;fontSize=16;" parent="kad9bLXhxutbQK4ElcKg-1" vertex="1">
                    <mxGeometry x="210" y="350" width="100" height="20" as="geometry"/>
                </mxCell>
                <mxCell id="kad9bLXhxutbQK4ElcKg-21" value="string" style="text;html=1;strokeColor=#82b366;fillColor=#d5e8d4;align=left;verticalAlign=middle;whiteSpace=wrap;rounded=0;fontSize=16;" parent="kad9bLXhxutbQK4ElcKg-1" vertex="1">
                    <mxGeometry x="210" y="390" width="100" height="20" as="geometry"/>
                </mxCell>
                <mxCell id="kad9bLXhxutbQK4ElcKg-22" value="number" style="text;html=1;strokeColor=#82b366;fillColor=#d5e8d4;align=left;verticalAlign=middle;whiteSpace=wrap;rounded=0;fontSize=16;" parent="kad9bLXhxutbQK4ElcKg-1" vertex="1">
                    <mxGeometry x="210" y="430" width="100" height="20" as="geometry"/>
                </mxCell>
                <mxCell id="kad9bLXhxutbQK4ElcKg-23" value="undefined" style="text;html=1;strokeColor=#82b366;fillColor=#d5e8d4;align=left;verticalAlign=middle;whiteSpace=wrap;rounded=0;fontSize=16;" parent="kad9bLXhxutbQK4ElcKg-1" vertex="1">
                    <mxGeometry x="210" y="470" width="100" height="20" as="geometry"/>
                </mxCell>
                <mxCell id="kad9bLXhxutbQK4ElcKg-24" value="null" style="text;html=1;strokeColor=#82b366;fillColor=#d5e8d4;align=left;verticalAlign=middle;whiteSpace=wrap;rounded=0;fontSize=16;" parent="kad9bLXhxutbQK4ElcKg-1" vertex="1">
                    <mxGeometry x="210" y="510" width="100" height="20" as="geometry"/>
                </mxCell>
                <mxCell id="kad9bLXhxutbQK4ElcKg-25" value="symbol" style="text;html=1;strokeColor=#d6b656;fillColor=#fff2cc;align=left;verticalAlign=middle;whiteSpace=wrap;rounded=0;fontSize=16;" parent="kad9bLXhxutbQK4ElcKg-1" vertex="1">
                    <mxGeometry x="210" y="550" width="100" height="20" as="geometry"/>
                </mxCell>
                <mxCell id="kad9bLXhxutbQK4ElcKg-26" value="bigint" style="text;html=1;strokeColor=#d6b656;fillColor=#fff2cc;align=left;verticalAlign=middle;whiteSpace=wrap;rounded=0;fontSize=16;" parent="kad9bLXhxutbQK4ElcKg-1" vertex="1">
                    <mxGeometry x="210" y="590" width="100" height="20" as="geometry"/>
                </mxCell>
                <mxCell id="kad9bLXhxutbQK4ElcKg-28" value="" style="endArrow=classic;html=1;fontSize=16;" parent="kad9bLXhxutbQK4ElcKg-1" edge="1">
                    <mxGeometry width="50" height="50" relative="1" as="geometry">
                        <mxPoint x="170" y="600" as="sourcePoint"/>
                        <mxPoint x="200" y="600" as="targetPoint"/>
                    </mxGeometry>
                </mxCell>
                <mxCell id="kad9bLXhxutbQK4ElcKg-30" value="" style="endArrow=classic;html=1;fontSize=16;" parent="kad9bLXhxutbQK4ElcKg-1" edge="1">
                    <mxGeometry width="50" height="50" relative="1" as="geometry">
                        <mxPoint x="490" y="360" as="sourcePoint"/>
                        <mxPoint x="520" y="360" as="targetPoint"/>
                    </mxGeometry>
                </mxCell>
                <mxCell id="kad9bLXhxutbQK4ElcKg-31" value="" style="endArrow=classic;html=1;fontSize=16;" parent="kad9bLXhxutbQK4ElcKg-1" edge="1">
                    <mxGeometry width="50" height="50" relative="1" as="geometry">
                        <mxPoint x="490" y="400" as="sourcePoint"/>
                        <mxPoint x="520" y="400" as="targetPoint"/>
                    </mxGeometry>
                </mxCell>
                <mxCell id="kad9bLXhxutbQK4ElcKg-32" value="array" style="text;html=1;strokeColor=#82b366;fillColor=#d5e8d4;align=left;verticalAlign=middle;whiteSpace=wrap;rounded=0;fontSize=16;" parent="kad9bLXhxutbQK4ElcKg-1" vertex="1">
                    <mxGeometry x="530" y="350" width="100" height="20" as="geometry"/>
                </mxCell>
                <mxCell id="kad9bLXhxutbQK4ElcKg-33" value="object" style="text;html=1;strokeColor=#82b366;fillColor=#d5e8d4;align=left;verticalAlign=middle;whiteSpace=wrap;rounded=0;fontSize=16;" parent="kad9bLXhxutbQK4ElcKg-1" vertex="1">
                    <mxGeometry x="530" y="390" width="100" height="20" as="geometry"/>
                </mxCell>
                <mxCell id="kad9bLXhxutbQK4ElcKg-34" value="MDN Documentation Reference&lt;br&gt;&lt;a href=&quot;https://developer.mozilla.org/en-US/docs/Web/JavaScript/Data_structures&quot;&gt;datatypes in JS&lt;/a&gt;" style="rounded=0;whiteSpace=wrap;html=1;fontSize=16;align=center;" parent="kad9bLXhxutbQK4ElcKg-1" vertex="1">
                    <mxGeometry x="400" y="480" width="360" height="120" as="geometry"/>
                </mxCell>
            </root>
        </mxGraphModel>
    </diagram>
    <diagram id="_qWgcx9nwP8FVrM00vL_" name="Page-4">
        <mxGraphModel dx="1117" dy="645" grid="1" gridSize="10" guides="1" tooltips="1" connect="1" arrows="1" fold="1" page="1" pageScale="1" pageWidth="827" pageHeight="1169" math="0" shadow="0">
            <root>
                <mxCell id="TNw4pR6uTAUvpJUeW21S-0"/>
                <mxCell id="TNw4pR6uTAUvpJUeW21S-1" parent="TNw4pR6uTAUvpJUeW21S-0"/>
                <mxCell id="TNw4pR6uTAUvpJUeW21S-2" value="true" style="rounded=0;whiteSpace=wrap;html=1;" vertex="1" parent="TNw4pR6uTAUvpJUeW21S-1">
                    <mxGeometry x="80" y="40" width="120" height="40" as="geometry"/>
                </mxCell>
                <mxCell id="TNw4pR6uTAUvpJUeW21S-3" value="true" style="rounded=0;whiteSpace=wrap;html=1;" vertex="1" parent="TNw4pR6uTAUvpJUeW21S-1">
                    <mxGeometry x="200" y="40" width="120" height="40" as="geometry"/>
                </mxCell>
                <mxCell id="TNw4pR6uTAUvpJUeW21S-4" value="true" style="rounded=0;whiteSpace=wrap;html=1;" vertex="1" parent="TNw4pR6uTAUvpJUeW21S-1">
                    <mxGeometry x="80" y="80" width="120" height="40" as="geometry"/>
                </mxCell>
                <mxCell id="TNw4pR6uTAUvpJUeW21S-5" value="false" style="rounded=0;whiteSpace=wrap;html=1;" vertex="1" parent="TNw4pR6uTAUvpJUeW21S-1">
                    <mxGeometry x="200" y="80" width="120" height="40" as="geometry"/>
                </mxCell>
                <mxCell id="TNw4pR6uTAUvpJUeW21S-6" value="false" style="rounded=0;whiteSpace=wrap;html=1;" vertex="1" parent="TNw4pR6uTAUvpJUeW21S-1">
                    <mxGeometry x="80" y="120" width="120" height="40" as="geometry"/>
                </mxCell>
                <mxCell id="TNw4pR6uTAUvpJUeW21S-7" value="true" style="rounded=0;whiteSpace=wrap;html=1;" vertex="1" parent="TNw4pR6uTAUvpJUeW21S-1">
                    <mxGeometry x="200" y="120" width="120" height="40" as="geometry"/>
                </mxCell>
                <mxCell id="TNw4pR6uTAUvpJUeW21S-8" value="false" style="rounded=0;whiteSpace=wrap;html=1;" vertex="1" parent="TNw4pR6uTAUvpJUeW21S-1">
                    <mxGeometry x="80" y="160" width="120" height="40" as="geometry"/>
                </mxCell>
                <mxCell id="TNw4pR6uTAUvpJUeW21S-9" value="false" style="rounded=0;whiteSpace=wrap;html=1;" vertex="1" parent="TNw4pR6uTAUvpJUeW21S-1">
                    <mxGeometry x="200" y="160" width="120" height="40" as="geometry"/>
                </mxCell>
                <mxCell id="TNw4pR6uTAUvpJUeW21S-10" value="true" style="rounded=0;whiteSpace=wrap;html=1;" vertex="1" parent="TNw4pR6uTAUvpJUeW21S-1">
                    <mxGeometry x="320" y="40" width="120" height="40" as="geometry"/>
                </mxCell>
                <mxCell id="TNw4pR6uTAUvpJUeW21S-11" value="true" style="rounded=0;whiteSpace=wrap;html=1;" vertex="1" parent="TNw4pR6uTAUvpJUeW21S-1">
                    <mxGeometry x="320" y="80" width="120" height="40" as="geometry"/>
                </mxCell>
                <mxCell id="TNw4pR6uTAUvpJUeW21S-12" value="true" style="rounded=0;whiteSpace=wrap;html=1;" vertex="1" parent="TNw4pR6uTAUvpJUeW21S-1">
                    <mxGeometry x="320" y="120" width="120" height="40" as="geometry"/>
                </mxCell>
                <mxCell id="TNw4pR6uTAUvpJUeW21S-19" value="isLoggined" style="rounded=0;whiteSpace=wrap;html=1;" vertex="1" parent="TNw4pR6uTAUvpJUeW21S-1">
                    <mxGeometry x="120" y="280" width="120" height="40" as="geometry"/>
                </mxCell>
            </root>
        </mxGraphModel>
    </diagram>
</mxfile>